<?xml version="1.0" encoding="UTF-8" standalone="no"?>
<!DOCTYPE svg PUBLIC "-//W3C//DTD SVG 1.1//EN" "http://www.w3.org/Graphics/SVG/1.1/DTD/svg11.dtd">
<svg width="100%" height="100%" viewBox="0 0 264 88" version="1.1" xmlns="http://www.w3.org/2000/svg" xmlns:xlink="http://www.w3.org/1999/xlink" xml:space="preserve" style="fill-rule:evenodd;clip-rule:evenodd;">
    <g>
        <path id="Shape" d="M67.002,59.5L67.002,63.268C60.695,64.108 57.818,69.018 57,73C59.22,70.17 62.564,67.902 67.002,67.902L67.002,71.5L73,65.585L67.002,59.5Z" style="fill:rgb(238,150,189);"/>
        <path id="Shape1" d="M13,29L13,24L15,24L15,27L18,27L18,29L13,29ZM13,15L18,15L18,17L15,17L15,20L13,20L13,15ZM31,15L31,20L29,20L29,17L26,17L26,15L31,15ZM31,29L26,29L26,27L29,27L29,24L31,24L31,29Z" style="fill:rgb(238,150,189);"/>
        <path d="M62,24L62,29L60,29L60,26L57,26L57,24L62,24ZM62,20L57,20L57,18L60,18L60,15L62,15L62,20ZM70,20L70,15L72,15L72,18L75,18L75,20L70,20ZM70,24L75,24L75,26L72,26L72,29L70,29L70,24Z" style="fill:rgb(238,150,189);"/>
        <path d="M20.586,66L14.93,60.344L16.344,58.93L22,64.586L27.656,58.93L29.07,60.344L23.414,66L29.07,71.656L27.656,73.07L22,67.414L16.344,73.07L14.93,71.656L20.586,66Z" style="fill:rgb(238,150,189);"/>
        <path d="M111.785,65.03L110,63.5L113,60L103,60L103,58L113,58L110,54.5L111.785,53.032L117,59L111.785,65.03Z" style="fill:rgb(238,150,189);"/>
        <path d="M152.215,65.03L154,63.5L151,60L161,60L161,58L151,58L154,54.5L152.215,53.032L147,59L152.215,65.03Z" style="fill:rgb(238,150,189);"/>
        <g>
            <path id="Rectangle.-11" d="M160.957,28.543L157.707,25.293L156.294,26.707L159.544,29.957L160.957,28.543Z" style="fill:rgb(238,150,189);"/>
            <path id="Oval.-1" d="M152.5,27C155.538,27 158,24.538 158,21.5C158,18.462 155.538,16 152.5,16C149.462,16 147,18.462 147,21.5C147,24.538 149.462,27 152.5,27Z" style="fill:none;stroke:rgb(238,150,189);stroke-width:1.5px;"/>
            <path d="M150,21L155,21L155,22L150,22L150,21Z" style="fill:rgb(238,150,189);"/>
        </g>
        <g>
            <path d="M116.957,28.543L115.543,29.957L112.293,26.707L113.707,25.293L116.957,28.543Z" style="fill:rgb(238,150,189);"/>
            <path d="M108.5,27C111.538,27 114,24.538 114,21.5C114,18.462 111.538,16 108.5,16C105.462,16 103,18.462 103,21.5C103,24.538 105.462,27 108.5,27Z" style="fill:none;stroke:rgb(238,150,189);stroke-width:1.5px;"/>
            <path d="M106,21L111,21L111,22L106,22L106,21Z" style="fill:rgb(238,150,189);"/>
            <path d="M109.043,19.008L108.958,24.008L107.958,23.991L108.043,18.991L109.043,19.008Z" style="fill:rgb(238,150,189);"/>
        </g>
    </g>
</svg>
